<svg xmlns="http://www.w3.org/2000/svg" xmlns:xlink="http://www.w3.org/1999/xlink" width="180" height="60" preserveAspectRatio="xMidYMid meet" version="1.0" viewBox="0 0 135 45" zoomAndPan="magnify"><defs><clipPath id="4c2e04f2ad"><path d="M 70 2.78125 L 133.183594 2.78125 L 133.183594 32.03125 L 70 32.03125 Z M 70 2.78125" clip-rule="nonzero"/></clipPath><clipPath id="a7df4d0644"><path d="M 1.933594 2.78125 L 71 2.78125 L 71 32.03125 L 1.933594 32.03125 Z M 1.933594 2.78125" clip-rule="nonzero"/></clipPath></defs><rect width="162" height="54" x="-13.5" y="-4.5" fill="#fff" fill-opacity="1"/><rect width="162" height="54" x="-13.5" y="-4.5" fill="#fff" fill-opacity="1"/><rect width="162" height="54" x="-13.5" y="-4.5" fill="#fff" fill-opacity="1"/><g clip-path="url(#4c2e04f2ad)"><path fill="#04478e" fill-opacity="1" fill-rule="nonzero" d="M 133.183594 2.78125 L 133.183594 32.027344 C 132.839844 32.027344 70.625 32.027344 70.289062 32.027344 C 70.289062 31.71875 70.289062 2.78125 70.289062 2.78125 Z M 114.792969 23.886719 C 113.625 25.707031 112.871094 26.378906 111.734375 26.621094 C 110.253906 26.953125 108.777344 26.5 107.960938 25.449219 C 110.976562 22.746094 114.078125 20.136719 117.066406 17.425781 C 115.300781 14.519531 111.707031 13.203125 108.371094 14.105469 C 105.609375 14.855469 102.226562 17.765625 102.671875 22.449219 C 102.976562 25.648438 105.609375 28.941406 109.601562 29.472656 C 112.640625 29.878906 116.398438 27.910156 117.34375 25.332031 Z M 129.691406 29.003906 L 129.691406 4.402344 C 128.402344 4.351562 127.097656 4.296875 125.875 4.402344 C 125.796875 5.367188 125.839844 28.289062 125.851562 29.003906 C 127.128906 29.089844 128.402344 29.089844 129.679688 29.003906 Z M 100.902344 16.695312 C 99.136719 14.175781 95.523438 13.164062 92.324219 14.265625 C 89.167969 15.351562 86.753906 18.410156 87.101562 22.523438 C 87.371094 25.707031 90.0625 28.644531 93.277344 29.328125 C 96.191406 29.949219 99.78125 28.683594 100.78125 26.703125 L 98.234375 24.972656 C 98.125 25.027344 98.023438 25.085938 97.929688 25.15625 C 96.683594 26.304688 95.222656 26.523438 93.628906 26.117188 C 90.992188 25.453125 89.476562 22.9375 90.230469 20.386719 C 90.71875 18.734375 91.738281 17.539062 93.527344 17.183594 C 93.976562 17.121094 94.429688 17.09375 94.886719 17.105469 C 95.914062 17.058594 96.792969 17.402344 97.519531 18.128906 C 97.78125 18.414062 98.027344 18.707031 98.253906 19.019531 Z M 119.769531 4.402344 L 119.769531 16.675781 C 119.769531 18.746094 119.757812 20.816406 119.769531 22.886719 C 119.777344 24.910156 119.722656 26.941406 119.808594 29.042969 C 120.492188 29.042969 121.09375 29.042969 121.695312 29.042969 C 122.292969 29.042969 123.527344 29.023438 123.527344 29.023438 C 123.527344 29.023438 123.660156 5.011719 123.5 4.410156 Z M 76.546875 21.042969 L 71.761719 28.992188 L 75.289062 28.992188 C 75.414062 28.769531 78.242188 23.371094 78.417969 23.085938 L 81.964844 28.984375 L 85.59375 28.984375 L 79.824219 20.46875 L 84.285156 13.082031 L 81.328125 13.082031 C 80.210938 14.792969 79.289062 16.589844 78.125 18.320312 L 75.449219 14.242188 L 72.035156 14.242188 Z M 76.546875 21.042969"/></g><g clip-path="url(#a7df4d0644)"><path fill="#ff5d01" fill-opacity="1" fill-rule="nonzero" d="M 70.285156 32.011719 L 34.609375 32.011719 C 34.609375 22.816406 34.621094 13.304688 34.621094 4.003906 C 33.644531 4.820312 25.804688 13.070312 24.964844 13.925781 L 15.445312 4.019531 L 15.445312 28.949219 C 16.109375 29.097656 17.949219 29.113281 18.820312 28.964844 L 18.820312 11.207031 L 25.050781 18.226562 C 27.132812 15.953125 29.074219 13.601562 31.09375 11.355469 C 31.140625 11.367188 31.183594 11.386719 31.226562 11.410156 C 31.25 11.429688 31.265625 11.449219 31.269531 11.480469 C 31.28125 17.855469 31.28125 32.015625 31.28125 32.015625 L 1.933594 32.027344 L 1.933594 2.78125 L 70.285156 2.78125 Z M 52.703125 28.910156 L 52.703125 14.320312 L 50.503906 16.234375 C 50.359375 16.121094 50.246094 16.039062 50.148438 15.941406 C 46.863281 12.84375 41.175781 13.191406 38.25 16.570312 C 37.15625 17.832031 36.410156 19.25 36.300781 20.910156 C 36.128906 23.585938 37.058594 25.839844 39.1875 27.570312 C 42.261719 30.070312 46.792969 30.121094 49.820312 27.601562 C 50.035156 27.433594 50.261719 27.261719 50.507812 27.066406 Z M 62.082031 20.453125 C 63.648438 17.960938 65.152344 15.566406 66.710938 13.078125 L 63.761719 13.078125 C 62.59375 14.789062 61.621094 16.597656 60.382812 18.320312 C 59.59375 17.105469 58.871094 15.984375 58.136719 14.875 C 57.976562 14.652344 57.804688 14.445312 57.621094 14.242188 L 54.332031 14.242188 C 55.800781 16.605469 57.398438 18.765625 58.785156 21.066406 L 54.027344 28.976562 L 57.597656 28.976562 C 58.582031 27.054688 59.566406 25.121094 60.617188 23.058594 C 61.957031 25.066406 63.015625 27.085938 64.269531 28.984375 L 67.855469 28.984375 Z M 62.082031 20.453125"/></g><path fill="#04478e" fill-opacity="1" fill-rule="nonzero" d="M 106.5625 23.410156 C 105.25 21.859375 105.542969 19.25 107.117188 17.8125 C 108.90625 16.179688 111.78125 16.496094 112.898438 17.8125 Z M 106.5625 23.410156"/><path fill="#ff5d01" fill-opacity="1" fill-rule="nonzero" d="M 43.785156 20.988281 L 43.160156 21.765625 L 43.503906 22.542969 L 44.414062 22.632812 C 44.828125 23.203125 44.382812 24.023438 45.039062 24.542969 C 45.960938 24.125 45.792969 22.984375 46.472656 22.417969 L 46.121094 22.136719 L 46.148438 21.949219 C 46.707031 21.96875 46.707031 21.96875 46.878906 21.453125 C 47.425781 21.308594 47.59375 21.734375 47.851562 22.136719 C 48.003906 21.894531 48.144531 21.667969 48.320312 21.386719 L 49.058594 22.089844 L 49.316406 22.066406 C 49.367188 21.894531 49.417969 21.746094 49.488281 21.5 C 49.902344 22.679688 49.085938 24.605469 47.796875 25.605469 C 46.136719 26.886719 43.890625 27.246094 42.027344 26.011719 L 41.828125 25.652344 C 41.691406 24.777344 42.054688 23.976562 42.292969 23.164062 C 41.984375 22.980469 41.695312 22.882812 41.53125 22.683594 C 41.152344 22.226562 40.671875 22.195312 40.160156 22.265625 L 39.722656 22.09375 L 39.460938 21.34375 L 40.050781 21.179688 C 40.339844 20.910156 40.589844 20.648438 40.871094 20.429688 C 41.144531 20.234375 41.425781 20.054688 41.714844 19.886719 L 41.511719 19.375 L 41.511719 19.035156 C 41.628906 19.054688 41.734375 19.03125 41.828125 18.964844 C 41.925781 18.898438 41.984375 18.808594 42.003906 18.691406 C 41.929688 18.457031 41.816406 18.28125 41.53125 18.339844 L 41.332031 18.003906 L 41.707031 17.597656 L 42.382812 18.320312 C 42.359375 18.585938 42.324219 18.957031 42.285156 19.417969 L 43.433594 18.582031 C 43.519531 18.277344 43.617188 17.898438 43.753906 17.421875 L 41.800781 17.53125 C 42.238281 17.015625 42.867188 16.890625 43.46875 16.765625 C 44.1875 16.597656 44.90625 16.59375 45.625 16.746094 C 46.34375 16.898438 47 17.195312 47.585938 17.640625 C 47.65625 17.6875 47.71875 17.746094 47.769531 17.8125 C 47.796875 17.859375 47.8125 17.914062 47.820312 17.96875 C 47.433594 18.210938 47.132812 17.878906 46.882812 17.8125 L 45.429688 19.039062 C 45.230469 18.886719 45.179688 18.390625 44.6875 18.660156 L 44.300781 19.449219 L 44.761719 19.519531 L 44.769531 19.722656 L 44.085938 20.066406 L 43.855469 19.554688 C 43.746094 19.964844 43.871094 20.042969 44.097656 20.046875 L 44.078125 20.558594 L 44.097656 20.539062 C 43.863281 20.417969 43.753906 20.515625 43.734375 20.746094 Z M 49.054688 22.78125 C 49.078125 22.820312 49.105469 22.859375 49.054688 22.78125 C 49.125 22.824219 49.089844 22.804688 49.054688 22.78125 L 49.007812 22.484375 L 48.882812 22.535156 Z M 46.136719 24.019531 L 46.273438 24.046875 L 46.273438 23.703125 L 46.1875 23.703125 C 46.175781 23.800781 46.15625 23.910156 46.140625 24.019531 Z M 46.136719 24.019531"/><path fill="#ff5d01" fill-opacity="1" fill-rule="nonzero" d="M 39.71875 22.109375 L 40.152344 22.28125 C 40.070312 22.714844 40.085938 23.148438 40.460938 23.429688 C 40.835938 23.707031 40.996094 24.054688 41.160156 24.445312 C 41.320312 24.835938 41.527344 25.25 41.714844 25.652344 C 41.671875 25.6875 41.632812 25.722656 41.597656 25.761719 C 40.308594 24.972656 39.726562 23.757812 39.519531 22.324219 C 39.511719 22.261719 39.648438 22.183594 39.71875 22.109375 Z M 39.71875 22.109375"/><path fill="#ff5d01" fill-opacity="1" fill-rule="nonzero" d="M 41.332031 18.003906 L 41.527344 18.375 C 41.527344 18.605469 41.519531 18.835938 41.511719 19.070312 L 41.511719 19.410156 C 41.109375 19.292969 41.085938 19.8125 40.722656 19.859375 C 40.703125 19.671875 40.679688 19.496094 40.65625 19.3125 L 41.308594 18.761719 L 40.667969 18.664062 C 40.980469 18.460938 40.914062 18.023438 41.332031 18.003906 Z M 41.332031 18.003906"/><path fill="#ff5d01" fill-opacity="1" fill-rule="nonzero" d="M 43.785156 20.988281 L 43.734375 20.769531 L 44.09375 20.570312 L 44.074219 20.589844 L 45.292969 20.589844 L 45.273438 20.570312 L 45.632812 21.113281 C 45.300781 21.304688 44.949219 21.273438 44.578125 21.140625 C 44.316406 21.070312 44.054688 21.019531 43.785156 20.988281 Z M 43.785156 20.988281"/><path fill="#ff5d01" fill-opacity="1" fill-rule="nonzero" d="M 45.292969 20.582031 C 45.292969 20.5 45.304688 20.410156 45.316406 20.304688 C 45.546875 20.171875 45.742188 20.15625 45.867188 20.5625 L 45.273438 20.5625 Z M 45.292969 20.582031"/><path fill="#ff5d01" fill-opacity="1" fill-rule="nonzero" d="M 44.769531 19.722656 L 44.761719 19.519531 L 44.8125 18.984375 C 44.957031 19.253906 45.179688 19.53125 44.769531 19.722656 Z M 44.769531 19.722656"/><path fill="#ff5d01" fill-opacity="1" fill-rule="nonzero" d="M 41.828125 25.664062 L 42.023438 26.023438 L 41.597656 25.757812 C 41.632812 25.71875 41.671875 25.683594 41.714844 25.648438 Z M 41.828125 25.664062"/><path fill="#ff5d01" fill-opacity="1" fill-rule="nonzero" d="M 46.144531 21.949219 L 46.113281 22.140625 L 45.914062 21.96875 Z M 46.144531 21.949219"/><path fill="#ff5d01" fill-opacity="1" fill-rule="nonzero" d="M 45.808594 21.582031 L 45.9375 21.714844 L 45.863281 21.773438 L 45.78125 21.605469 Z M 45.808594 21.582031"/><path fill="#ff5d01" fill-opacity="1" fill-rule="nonzero" d="M 45.78125 21.609375 L 45.667969 21.523438 L 45.710938 21.476562 L 45.808594 21.582031 Z M 45.78125 21.609375"/><g fill="#ff5d01" fill-opacity="1"><g><g><path d="M 0.6875 0 L 0.6875 -6.296875 L 1.71875 -6.296875 L 1.71875 0 Z M 0.6875 0" transform="translate(1.933448, 41.61574)"/></g></g></g><g fill="#ff5d01" fill-opacity="1"><g><g><path d="M 3.515625 0 L 3.515625 -2.5 C 3.515625 -2.78125 3.421875 -3.015625 3.234375 -3.203125 C 3.054688 -3.390625 2.820312 -3.484375 2.53125 -3.484375 C 2.332031 -3.484375 2.160156 -3.441406 2.015625 -3.359375 C 1.867188 -3.273438 1.75 -3.15625 1.65625 -3 C 1.570312 -2.851562 1.53125 -2.6875 1.53125 -2.5 L 1.15625 -2.703125 C 1.15625 -3.035156 1.222656 -3.328125 1.359375 -3.578125 C 1.503906 -3.835938 1.703125 -4.039062 1.953125 -4.1875 C 2.210938 -4.332031 2.503906 -4.40625 2.828125 -4.40625 C 3.148438 -4.40625 3.4375 -4.320312 3.6875 -4.15625 C 3.9375 -4 4.132812 -3.785156 4.28125 -3.515625 C 4.425781 -3.253906 4.5 -2.984375 4.5 -2.703125 L 4.5 0 Z M 0.546875 0 L 0.546875 -4.3125 L 1.53125 -4.3125 L 1.53125 0 Z M 0.546875 0" transform="translate(4.608128, 41.61574)"/></g></g></g><g fill="#ff5d01" fill-opacity="1"><g><g><path d="M 1.96875 0.09375 C 1.726562 0.09375 1.492188 0.0625 1.265625 0 C 1.046875 -0.0625 0.84375 -0.148438 0.65625 -0.265625 C 0.46875 -0.390625 0.304688 -0.535156 0.171875 -0.703125 L 0.796875 -1.328125 C 0.953125 -1.160156 1.125 -1.03125 1.3125 -0.9375 C 1.507812 -0.851562 1.734375 -0.8125 1.984375 -0.8125 C 2.203125 -0.8125 2.367188 -0.84375 2.484375 -0.90625 C 2.597656 -0.976562 2.65625 -1.078125 2.65625 -1.203125 C 2.65625 -1.328125 2.597656 -1.425781 2.484375 -1.5 C 2.378906 -1.570312 2.238281 -1.632812 2.0625 -1.6875 C 1.894531 -1.738281 1.71875 -1.789062 1.53125 -1.84375 C 1.34375 -1.894531 1.160156 -1.96875 0.984375 -2.0625 C 0.816406 -2.15625 0.675781 -2.28125 0.5625 -2.4375 C 0.457031 -2.601562 0.40625 -2.816406 0.40625 -3.078125 C 0.40625 -3.347656 0.46875 -3.582031 0.59375 -3.78125 C 0.726562 -3.988281 0.914062 -4.144531 1.15625 -4.25 C 1.394531 -4.351562 1.675781 -4.40625 2 -4.40625 C 2.351562 -4.40625 2.660156 -4.34375 2.921875 -4.21875 C 3.191406 -4.101562 3.414062 -3.921875 3.59375 -3.671875 L 2.96875 -3.046875 C 2.84375 -3.203125 2.695312 -3.316406 2.53125 -3.390625 C 2.375 -3.472656 2.191406 -3.515625 1.984375 -3.515625 C 1.785156 -3.515625 1.628906 -3.484375 1.515625 -3.421875 C 1.410156 -3.359375 1.359375 -3.269531 1.359375 -3.15625 C 1.359375 -3.039062 1.410156 -2.945312 1.515625 -2.875 C 1.628906 -2.8125 1.769531 -2.753906 1.9375 -2.703125 C 2.113281 -2.660156 2.296875 -2.609375 2.484375 -2.546875 C 2.671875 -2.492188 2.847656 -2.414062 3.015625 -2.3125 C 3.191406 -2.21875 3.332031 -2.085938 3.4375 -1.921875 C 3.539062 -1.753906 3.59375 -1.539062 3.59375 -1.28125 C 3.59375 -0.851562 3.445312 -0.515625 3.15625 -0.265625 C 2.863281 -0.0234375 2.46875 0.09375 1.96875 0.09375 Z M 1.96875 0.09375" transform="translate(9.840411, 41.61574)"/></g></g></g><g fill="#ff5d01" fill-opacity="1"><g><g><path d="M 1.203125 0 L 1.203125 -6.125 L 2.203125 -6.125 L 2.203125 0 Z M 0.171875 -3.421875 L 0.171875 -4.3125 L 3.234375 -4.3125 L 3.234375 -3.421875 Z M 0.171875 -3.421875" transform="translate(13.983008, 41.61574)"/></g></g></g><g fill="#ff5d01" fill-opacity="1"><g><g><path d="M 0.5625 0 L 0.5625 -4.3125 L 1.546875 -4.3125 L 1.546875 0 Z M 1.046875 -5.109375 C 0.878906 -5.109375 0.738281 -5.164062 0.625 -5.28125 C 0.519531 -5.394531 0.46875 -5.535156 0.46875 -5.703125 C 0.46875 -5.867188 0.519531 -6.007812 0.625 -6.125 C 0.738281 -6.238281 0.878906 -6.296875 1.046875 -6.296875 C 1.222656 -6.296875 1.363281 -6.238281 1.46875 -6.125 C 1.582031 -6.007812 1.640625 -5.867188 1.640625 -5.703125 C 1.640625 -5.535156 1.582031 -5.394531 1.46875 -5.28125 C 1.363281 -5.164062 1.222656 -5.109375 1.046875 -5.109375 Z M 1.046875 -5.109375" transform="translate(17.657309, 41.61574)"/></g></g></g><g fill="#ff5d01" fill-opacity="1"><g><g><path d="M 1.203125 0 L 1.203125 -6.125 L 2.203125 -6.125 L 2.203125 0 Z M 0.171875 -3.421875 L 0.171875 -4.3125 L 3.234375 -4.3125 L 3.234375 -3.421875 Z M 0.171875 -3.421875" transform="translate(20.034796, 41.61574)"/></g></g></g><g fill="#ff5d01" fill-opacity="1"><g><g><path d="M 2.328125 0.09375 C 1.953125 0.09375 1.625 0.015625 1.34375 -0.140625 C 1.0625 -0.304688 0.835938 -0.53125 0.671875 -0.8125 C 0.515625 -1.101562 0.4375 -1.4375 0.4375 -1.8125 L 0.4375 -4.3125 L 1.4375 -4.3125 L 1.4375 -1.859375 C 1.4375 -1.640625 1.46875 -1.457031 1.53125 -1.3125 C 1.601562 -1.164062 1.707031 -1.050781 1.84375 -0.96875 C 1.976562 -0.894531 2.140625 -0.859375 2.328125 -0.859375 C 2.609375 -0.859375 2.828125 -0.941406 2.984375 -1.109375 C 3.140625 -1.285156 3.21875 -1.535156 3.21875 -1.859375 L 3.21875 -4.3125 L 4.203125 -4.3125 L 4.203125 -1.8125 C 4.203125 -1.425781 4.117188 -1.09375 3.953125 -0.8125 C 3.796875 -0.53125 3.578125 -0.304688 3.296875 -0.140625 C 3.015625 0.015625 2.691406 0.09375 2.328125 0.09375 Z M 2.328125 0.09375" transform="translate(23.709098, 41.61574)"/></g></g></g><g fill="#ff5d01" fill-opacity="1"><g><g><path d="M 1.203125 0 L 1.203125 -6.125 L 2.203125 -6.125 L 2.203125 0 Z M 0.171875 -3.421875 L 0.171875 -4.3125 L 3.234375 -4.3125 L 3.234375 -3.421875 Z M 0.171875 -3.421875" transform="translate(28.635186, 41.61574)"/></g></g></g><g fill="#ff5d01" fill-opacity="1"><g><g><path d="M 2.5625 0.09375 C 2.125 0.09375 1.734375 -0.00390625 1.390625 -0.203125 C 1.046875 -0.398438 0.769531 -0.664062 0.5625 -1 C 0.363281 -1.34375 0.265625 -1.726562 0.265625 -2.15625 C 0.265625 -2.582031 0.363281 -2.960938 0.5625 -3.296875 C 0.757812 -3.640625 1.023438 -3.910156 1.359375 -4.109375 C 1.703125 -4.304688 2.082031 -4.40625 2.5 -4.40625 C 2.90625 -4.40625 3.257812 -4.3125 3.5625 -4.125 C 3.875 -3.945312 4.117188 -3.691406 4.296875 -3.359375 C 4.472656 -3.035156 4.5625 -2.671875 4.5625 -2.265625 C 4.5625 -2.191406 4.554688 -2.113281 4.546875 -2.03125 C 4.535156 -1.957031 4.523438 -1.878906 4.515625 -1.796875 L 0.96875 -1.796875 L 0.96875 -2.59375 L 4 -2.59375 L 3.625 -2.28125 C 3.613281 -2.539062 3.5625 -2.757812 3.46875 -2.9375 C 3.382812 -3.125 3.257812 -3.265625 3.09375 -3.359375 C 2.925781 -3.453125 2.722656 -3.5 2.484375 -3.5 C 2.234375 -3.5 2.015625 -3.441406 1.828125 -3.328125 C 1.640625 -3.222656 1.492188 -3.070312 1.390625 -2.875 C 1.285156 -2.6875 1.234375 -2.457031 1.234375 -2.1875 C 1.234375 -1.914062 1.285156 -1.675781 1.390625 -1.46875 C 1.503906 -1.269531 1.660156 -1.113281 1.859375 -1 C 2.054688 -0.894531 2.285156 -0.84375 2.546875 -0.84375 C 2.765625 -0.84375 2.96875 -0.878906 3.15625 -0.953125 C 3.351562 -1.035156 3.515625 -1.148438 3.640625 -1.296875 L 4.28125 -0.65625 C 4.0625 -0.40625 3.800781 -0.21875 3.5 -0.09375 C 3.207031 0.03125 2.894531 0.09375 2.5625 0.09375 Z M 2.5625 0.09375" transform="translate(32.309487, 41.61574)"/></g></g></g><g fill="#ff5d01" fill-opacity="1"><g><g><path d="M 4.75 0 L 1.75 -3.265625 C 1.53125 -3.515625 1.363281 -3.75 1.25 -3.96875 C 1.144531 -4.1875 1.09375 -4.429688 1.09375 -4.703125 C 1.09375 -5.023438 1.171875 -5.3125 1.328125 -5.5625 C 1.484375 -5.820312 1.691406 -6.023438 1.953125 -6.171875 C 2.222656 -6.328125 2.535156 -6.40625 2.890625 -6.40625 C 3.148438 -6.40625 3.390625 -6.359375 3.609375 -6.265625 C 3.828125 -6.179688 4.015625 -6.066406 4.171875 -5.921875 C 4.335938 -5.785156 4.476562 -5.632812 4.59375 -5.46875 L 3.875 -4.828125 C 3.75 -5.015625 3.609375 -5.160156 3.453125 -5.265625 C 3.296875 -5.378906 3.109375 -5.4375 2.890625 -5.4375 C 2.660156 -5.4375 2.46875 -5.367188 2.3125 -5.234375 C 2.15625 -5.109375 2.078125 -4.941406 2.078125 -4.734375 C 2.078125 -4.523438 2.117188 -4.351562 2.203125 -4.21875 C 2.285156 -4.09375 2.40625 -3.941406 2.5625 -3.765625 L 5.9375 0 Z M 2.59375 0.09375 C 2.15625 0.09375 1.773438 0.0078125 1.453125 -0.15625 C 1.140625 -0.320312 0.894531 -0.550781 0.71875 -0.84375 C 0.539062 -1.132812 0.453125 -1.46875 0.453125 -1.84375 C 0.453125 -2.21875 0.554688 -2.550781 0.765625 -2.84375 C 0.972656 -3.144531 1.273438 -3.390625 1.671875 -3.578125 L 2.140625 -2.984375 C 1.910156 -2.859375 1.734375 -2.707031 1.609375 -2.53125 C 1.492188 -2.351562 1.4375 -2.128906 1.4375 -1.859375 C 1.4375 -1.640625 1.484375 -1.457031 1.578125 -1.3125 C 1.679688 -1.164062 1.820312 -1.050781 2 -0.96875 C 2.1875 -0.882812 2.394531 -0.84375 2.625 -0.84375 C 2.9375 -0.84375 3.191406 -0.90625 3.390625 -1.03125 C 3.585938 -1.15625 3.738281 -1.304688 3.84375 -1.484375 L 4.484375 -0.734375 C 4.359375 -0.578125 4.195312 -0.4375 4 -0.3125 C 3.800781 -0.1875 3.582031 -0.0859375 3.34375 -0.015625 C 3.101562 0.0546875 2.851562 0.09375 2.59375 0.09375 Z M 2.59375 0.09375" transform="translate(39.459984, 41.61574)"/></g></g></g><g fill="#ff5d01" fill-opacity="1"><g><g><path d="M 3.578125 0.09375 C 3.128906 0.09375 2.707031 0.0078125 2.3125 -0.15625 C 1.925781 -0.320312 1.585938 -0.554688 1.296875 -0.859375 C 1.003906 -1.160156 0.773438 -1.503906 0.609375 -1.890625 C 0.441406 -2.285156 0.359375 -2.707031 0.359375 -3.15625 C 0.359375 -3.601562 0.441406 -4.019531 0.609375 -4.40625 C 0.773438 -4.800781 1.003906 -5.144531 1.296875 -5.4375 C 1.585938 -5.738281 1.925781 -5.972656 2.3125 -6.140625 C 2.695312 -6.304688 3.113281 -6.390625 3.5625 -6.390625 C 4.007812 -6.390625 4.425781 -6.304688 4.8125 -6.140625 C 5.207031 -5.972656 5.550781 -5.738281 5.84375 -5.4375 C 6.132812 -5.144531 6.363281 -4.800781 6.53125 -4.40625 C 6.695312 -4.019531 6.78125 -3.601562 6.78125 -3.15625 C 6.78125 -2.695312 6.695312 -2.269531 6.53125 -1.875 C 6.363281 -1.488281 6.132812 -1.144531 5.84375 -0.84375 C 5.550781 -0.550781 5.210938 -0.320312 4.828125 -0.15625 C 4.441406 0.0078125 4.023438 0.09375 3.578125 0.09375 Z M 3.5625 -0.90625 C 3.988281 -0.90625 4.363281 -1 4.6875 -1.1875 C 5.007812 -1.375 5.257812 -1.640625 5.4375 -1.984375 C 5.625 -2.328125 5.71875 -2.71875 5.71875 -3.15625 C 5.71875 -3.488281 5.664062 -3.789062 5.5625 -4.0625 C 5.457031 -4.332031 5.304688 -4.566406 5.109375 -4.765625 C 4.921875 -4.972656 4.695312 -5.128906 4.4375 -5.234375 C 4.175781 -5.347656 3.882812 -5.40625 3.5625 -5.40625 C 3.144531 -5.40625 2.773438 -5.304688 2.453125 -5.109375 C 2.128906 -4.921875 1.875 -4.660156 1.6875 -4.328125 C 1.507812 -3.992188 1.421875 -3.601562 1.421875 -3.15625 C 1.421875 -2.820312 1.472656 -2.515625 1.578125 -2.234375 C 1.679688 -1.960938 1.828125 -1.726562 2.015625 -1.53125 C 2.203125 -1.332031 2.425781 -1.175781 2.6875 -1.0625 C 2.957031 -0.957031 3.25 -0.90625 3.5625 -0.90625 Z M 3.5625 -0.90625" transform="translate(47.826243, 41.61574)"/></g></g></g><g fill="#ff5d01" fill-opacity="1"><g><g><path d="M 2 0 L 0.03125 -4.3125 L 1.140625 -4.3125 L 2.640625 -0.796875 L 1.984375 -0.796875 L 3.5 -4.3125 L 4.546875 -4.3125 L 2.578125 0 Z M 2 0" transform="translate(55.246894, 41.61574)"/></g></g></g><g fill="#ff5d01" fill-opacity="1"><g><g><path d="M 2.5625 0.09375 C 2.125 0.09375 1.734375 -0.00390625 1.390625 -0.203125 C 1.046875 -0.398438 0.769531 -0.664062 0.5625 -1 C 0.363281 -1.34375 0.265625 -1.726562 0.265625 -2.15625 C 0.265625 -2.582031 0.363281 -2.960938 0.5625 -3.296875 C 0.757812 -3.640625 1.023438 -3.910156 1.359375 -4.109375 C 1.703125 -4.304688 2.082031 -4.40625 2.5 -4.40625 C 2.90625 -4.40625 3.257812 -4.3125 3.5625 -4.125 C 3.875 -3.945312 4.117188 -3.691406 4.296875 -3.359375 C 4.472656 -3.035156 4.5625 -2.671875 4.5625 -2.265625 C 4.5625 -2.191406 4.554688 -2.113281 4.546875 -2.03125 C 4.535156 -1.957031 4.523438 -1.878906 4.515625 -1.796875 L 0.96875 -1.796875 L 0.96875 -2.59375 L 4 -2.59375 L 3.625 -2.28125 C 3.613281 -2.539062 3.5625 -2.757812 3.46875 -2.9375 C 3.382812 -3.125 3.257812 -3.265625 3.09375 -3.359375 C 2.925781 -3.453125 2.722656 -3.5 2.484375 -3.5 C 2.234375 -3.5 2.015625 -3.441406 1.828125 -3.328125 C 1.640625 -3.222656 1.492188 -3.070312 1.390625 -2.875 C 1.285156 -2.6875 1.234375 -2.457031 1.234375 -2.1875 C 1.234375 -1.914062 1.285156 -1.675781 1.390625 -1.46875 C 1.503906 -1.269531 1.660156 -1.113281 1.859375 -1 C 2.054688 -0.894531 2.285156 -0.84375 2.546875 -0.84375 C 2.765625 -0.84375 2.96875 -0.878906 3.15625 -0.953125 C 3.351562 -1.035156 3.515625 -1.148438 3.640625 -1.296875 L 4.28125 -0.65625 C 4.0625 -0.40625 3.800781 -0.21875 3.5 -0.09375 C 3.207031 0.03125 2.894531 0.09375 2.5625 0.09375 Z M 2.5625 0.09375" transform="translate(60.109945, 41.61574)"/></g></g></g><g fill="#ff5d01" fill-opacity="1"><g><g><path d="M 0.546875 0 L 0.546875 -4.3125 L 1.53125 -4.3125 L 1.53125 0 Z M 1.53125 -2.40625 L 1.203125 -2.578125 C 1.203125 -3.117188 1.320312 -3.554688 1.5625 -3.890625 C 1.800781 -4.234375 2.164062 -4.40625 2.65625 -4.40625 C 2.875 -4.40625 3.070312 -4.363281 3.25 -4.28125 C 3.425781 -4.207031 3.585938 -4.085938 3.734375 -3.921875 L 3.09375 -3.25 C 3.007812 -3.332031 2.921875 -3.390625 2.828125 -3.421875 C 2.734375 -3.460938 2.625 -3.484375 2.5 -3.484375 C 2.21875 -3.484375 1.984375 -3.394531 1.796875 -3.21875 C 1.617188 -3.050781 1.53125 -2.78125 1.53125 -2.40625 Z M 1.53125 -2.40625" transform="translate(65.189137, 41.61574)"/></g></g></g><g fill="#ff5d01" fill-opacity="1"><g><g><path d="M 1.96875 0.09375 C 1.726562 0.09375 1.492188 0.0625 1.265625 0 C 1.046875 -0.0625 0.84375 -0.148438 0.65625 -0.265625 C 0.46875 -0.390625 0.304688 -0.535156 0.171875 -0.703125 L 0.796875 -1.328125 C 0.953125 -1.160156 1.125 -1.03125 1.3125 -0.9375 C 1.507812 -0.851562 1.734375 -0.8125 1.984375 -0.8125 C 2.203125 -0.8125 2.367188 -0.84375 2.484375 -0.90625 C 2.597656 -0.976562 2.65625 -1.078125 2.65625 -1.203125 C 2.65625 -1.328125 2.597656 -1.425781 2.484375 -1.5 C 2.378906 -1.570312 2.238281 -1.632812 2.0625 -1.6875 C 1.894531 -1.738281 1.71875 -1.789062 1.53125 -1.84375 C 1.34375 -1.894531 1.160156 -1.96875 0.984375 -2.0625 C 0.816406 -2.15625 0.675781 -2.28125 0.5625 -2.4375 C 0.457031 -2.601562 0.40625 -2.816406 0.40625 -3.078125 C 0.40625 -3.347656 0.46875 -3.582031 0.59375 -3.78125 C 0.726562 -3.988281 0.914062 -4.144531 1.15625 -4.25 C 1.394531 -4.351562 1.675781 -4.40625 2 -4.40625 C 2.351562 -4.40625 2.660156 -4.34375 2.921875 -4.21875 C 3.191406 -4.101562 3.414062 -3.921875 3.59375 -3.671875 L 2.96875 -3.046875 C 2.84375 -3.203125 2.695312 -3.316406 2.53125 -3.390625 C 2.375 -3.472656 2.191406 -3.515625 1.984375 -3.515625 C 1.785156 -3.515625 1.628906 -3.484375 1.515625 -3.421875 C 1.410156 -3.359375 1.359375 -3.269531 1.359375 -3.15625 C 1.359375 -3.039062 1.410156 -2.945312 1.515625 -2.875 C 1.628906 -2.8125 1.769531 -2.753906 1.9375 -2.703125 C 2.113281 -2.660156 2.296875 -2.609375 2.484375 -2.546875 C 2.671875 -2.492188 2.847656 -2.414062 3.015625 -2.3125 C 3.191406 -2.21875 3.332031 -2.085938 3.4375 -1.921875 C 3.539062 -1.753906 3.59375 -1.539062 3.59375 -1.28125 C 3.59375 -0.851562 3.445312 -0.515625 3.15625 -0.265625 C 2.863281 -0.0234375 2.46875 0.09375 1.96875 0.09375 Z M 1.96875 0.09375" transform="translate(69.286709, 41.61574)"/></g></g></g><g fill="#ff5d01" fill-opacity="1"><g><g><path d="M 2.5625 0.09375 C 2.125 0.09375 1.734375 -0.00390625 1.390625 -0.203125 C 1.046875 -0.398438 0.769531 -0.664062 0.5625 -1 C 0.363281 -1.34375 0.265625 -1.726562 0.265625 -2.15625 C 0.265625 -2.582031 0.363281 -2.960938 0.5625 -3.296875 C 0.757812 -3.640625 1.023438 -3.910156 1.359375 -4.109375 C 1.703125 -4.304688 2.082031 -4.40625 2.5 -4.40625 C 2.90625 -4.40625 3.257812 -4.3125 3.5625 -4.125 C 3.875 -3.945312 4.117188 -3.691406 4.296875 -3.359375 C 4.472656 -3.035156 4.5625 -2.671875 4.5625 -2.265625 C 4.5625 -2.191406 4.554688 -2.113281 4.546875 -2.03125 C 4.535156 -1.957031 4.523438 -1.878906 4.515625 -1.796875 L 0.96875 -1.796875 L 0.96875 -2.59375 L 4 -2.59375 L 3.625 -2.28125 C 3.613281 -2.539062 3.5625 -2.757812 3.46875 -2.9375 C 3.382812 -3.125 3.257812 -3.265625 3.09375 -3.359375 C 2.925781 -3.453125 2.722656 -3.5 2.484375 -3.5 C 2.234375 -3.5 2.015625 -3.441406 1.828125 -3.328125 C 1.640625 -3.222656 1.492188 -3.070312 1.390625 -2.875 C 1.285156 -2.6875 1.234375 -2.457031 1.234375 -2.1875 C 1.234375 -1.914062 1.285156 -1.675781 1.390625 -1.46875 C 1.503906 -1.269531 1.660156 -1.113281 1.859375 -1 C 2.054688 -0.894531 2.285156 -0.84375 2.546875 -0.84375 C 2.765625 -0.84375 2.96875 -0.878906 3.15625 -0.953125 C 3.351562 -1.035156 3.515625 -1.148438 3.640625 -1.296875 L 4.28125 -0.65625 C 4.0625 -0.40625 3.800781 -0.21875 3.5 -0.09375 C 3.207031 0.03125 2.894531 0.09375 2.5625 0.09375 Z M 2.5625 0.09375" transform="translate(73.429307, 41.61574)"/></g></g></g><g fill="#ff5d01" fill-opacity="1"><g><g><path d="M 2.359375 0.09375 C 1.960938 0.09375 1.609375 -0.00390625 1.296875 -0.203125 C 0.984375 -0.398438 0.734375 -0.664062 0.546875 -1 C 0.367188 -1.34375 0.28125 -1.726562 0.28125 -2.15625 C 0.28125 -2.582031 0.367188 -2.960938 0.546875 -3.296875 C 0.734375 -3.640625 0.984375 -3.910156 1.296875 -4.109375 C 1.609375 -4.304688 1.960938 -4.40625 2.359375 -4.40625 C 2.691406 -4.40625 2.984375 -4.332031 3.234375 -4.1875 C 3.492188 -4.050781 3.695312 -3.859375 3.84375 -3.609375 C 3.988281 -3.367188 4.0625 -3.09375 4.0625 -2.78125 L 4.0625 -1.53125 C 4.0625 -1.226562 3.988281 -0.953125 3.84375 -0.703125 C 3.695312 -0.453125 3.492188 -0.253906 3.234375 -0.109375 C 2.984375 0.0234375 2.691406 0.09375 2.359375 0.09375 Z M 2.515625 -0.84375 C 2.878906 -0.84375 3.175781 -0.960938 3.40625 -1.203125 C 3.632812 -1.453125 3.75 -1.769531 3.75 -2.15625 C 3.75 -2.414062 3.695312 -2.644531 3.59375 -2.84375 C 3.488281 -3.039062 3.34375 -3.191406 3.15625 -3.296875 C 2.976562 -3.410156 2.765625 -3.46875 2.515625 -3.46875 C 2.273438 -3.46875 2.0625 -3.410156 1.875 -3.296875 C 1.695312 -3.191406 1.554688 -3.039062 1.453125 -2.84375 C 1.347656 -2.644531 1.296875 -2.414062 1.296875 -2.15625 C 1.296875 -1.894531 1.347656 -1.664062 1.453125 -1.46875 C 1.554688 -1.269531 1.695312 -1.113281 1.875 -1 C 2.0625 -0.894531 2.273438 -0.84375 2.515625 -0.84375 Z M 3.6875 0 L 3.6875 -1.15625 L 3.859375 -2.21875 L 3.6875 -3.265625 L 3.6875 -4.3125 L 4.671875 -4.3125 L 4.671875 0 Z M 3.6875 0" transform="translate(78.508499, 41.61574)"/></g></g></g><g fill="#ff5d01" fill-opacity="1"><g><g><path d="M 1.96875 0.09375 C 1.726562 0.09375 1.492188 0.0625 1.265625 0 C 1.046875 -0.0625 0.84375 -0.148438 0.65625 -0.265625 C 0.46875 -0.390625 0.304688 -0.535156 0.171875 -0.703125 L 0.796875 -1.328125 C 0.953125 -1.160156 1.125 -1.03125 1.3125 -0.9375 C 1.507812 -0.851562 1.734375 -0.8125 1.984375 -0.8125 C 2.203125 -0.8125 2.367188 -0.84375 2.484375 -0.90625 C 2.597656 -0.976562 2.65625 -1.078125 2.65625 -1.203125 C 2.65625 -1.328125 2.597656 -1.425781 2.484375 -1.5 C 2.378906 -1.570312 2.238281 -1.632812 2.0625 -1.6875 C 1.894531 -1.738281 1.71875 -1.789062 1.53125 -1.84375 C 1.34375 -1.894531 1.160156 -1.96875 0.984375 -2.0625 C 0.816406 -2.15625 0.675781 -2.28125 0.5625 -2.4375 C 0.457031 -2.601562 0.40625 -2.816406 0.40625 -3.078125 C 0.40625 -3.347656 0.46875 -3.582031 0.59375 -3.78125 C 0.726562 -3.988281 0.914062 -4.144531 1.15625 -4.25 C 1.394531 -4.351562 1.675781 -4.40625 2 -4.40625 C 2.351562 -4.40625 2.660156 -4.34375 2.921875 -4.21875 C 3.191406 -4.101562 3.414062 -3.921875 3.59375 -3.671875 L 2.96875 -3.046875 C 2.84375 -3.203125 2.695312 -3.316406 2.53125 -3.390625 C 2.375 -3.472656 2.191406 -3.515625 1.984375 -3.515625 C 1.785156 -3.515625 1.628906 -3.484375 1.515625 -3.421875 C 1.410156 -3.359375 1.359375 -3.269531 1.359375 -3.15625 C 1.359375 -3.039062 1.410156 -2.945312 1.515625 -2.875 C 1.628906 -2.8125 1.769531 -2.753906 1.9375 -2.703125 C 2.113281 -2.660156 2.296875 -2.609375 2.484375 -2.546875 C 2.671875 -2.492188 2.847656 -2.414062 3.015625 -2.3125 C 3.191406 -2.21875 3.332031 -2.085938 3.4375 -1.921875 C 3.539062 -1.753906 3.59375 -1.539062 3.59375 -1.28125 C 3.59375 -0.851562 3.445312 -0.515625 3.15625 -0.265625 C 2.863281 -0.0234375 2.46875 0.09375 1.96875 0.09375 Z M 1.96875 0.09375" transform="translate(84.001949, 41.61574)"/></g></g></g><g fill="#ff5d01" fill-opacity="1"><g><g><path d="M 0.6875 0 L 0.6875 -6.296875 L 1.71875 -6.296875 L 1.71875 0 Z M 1.390625 0 L 1.390625 -0.9375 L 4.921875 -0.9375 L 4.921875 0 Z M 1.390625 -2.765625 L 1.390625 -3.671875 L 4.609375 -3.671875 L 4.609375 -2.765625 Z M 1.390625 -5.359375 L 1.390625 -6.296875 L 4.875 -6.296875 L 4.875 -5.359375 Z M 1.390625 -5.359375" transform="translate(90.215852, 41.61574)"/></g></g></g><g fill="#ff5d01" fill-opacity="1"><g><g><path d="M 2.359375 0.09375 C 1.960938 0.09375 1.609375 -0.00390625 1.296875 -0.203125 C 0.984375 -0.398438 0.734375 -0.664062 0.546875 -1 C 0.367188 -1.34375 0.28125 -1.726562 0.28125 -2.15625 C 0.28125 -2.582031 0.367188 -2.960938 0.546875 -3.296875 C 0.734375 -3.640625 0.984375 -3.910156 1.296875 -4.109375 C 1.609375 -4.304688 1.960938 -4.40625 2.359375 -4.40625 C 2.691406 -4.40625 2.984375 -4.332031 3.234375 -4.1875 C 3.492188 -4.050781 3.695312 -3.859375 3.84375 -3.609375 C 3.988281 -3.367188 4.0625 -3.09375 4.0625 -2.78125 L 4.0625 -1.53125 C 4.0625 -1.226562 3.988281 -0.953125 3.84375 -0.703125 C 3.695312 -0.453125 3.492188 -0.253906 3.234375 -0.109375 C 2.984375 0.0234375 2.691406 0.09375 2.359375 0.09375 Z M 2.515625 -0.84375 C 2.765625 -0.84375 2.976562 -0.894531 3.15625 -1 C 3.34375 -1.113281 3.488281 -1.269531 3.59375 -1.46875 C 3.695312 -1.664062 3.75 -1.894531 3.75 -2.15625 C 3.75 -2.414062 3.695312 -2.644531 3.59375 -2.84375 C 3.488281 -3.039062 3.34375 -3.191406 3.15625 -3.296875 C 2.976562 -3.410156 2.769531 -3.46875 2.53125 -3.46875 C 2.28125 -3.46875 2.0625 -3.410156 1.875 -3.296875 C 1.695312 -3.191406 1.554688 -3.039062 1.453125 -2.84375 C 1.347656 -2.644531 1.296875 -2.414062 1.296875 -2.15625 C 1.296875 -1.894531 1.347656 -1.664062 1.453125 -1.46875 C 1.554688 -1.269531 1.695312 -1.113281 1.875 -1 C 2.0625 -0.894531 2.273438 -0.84375 2.515625 -0.84375 Z M 4.671875 0 L 3.6875 0 L 3.6875 -1.15625 L 3.859375 -2.21875 L 3.6875 -3.265625 L 3.6875 -6.484375 L 4.671875 -6.484375 Z M 4.671875 0" transform="translate(95.799355, 41.61574)"/></g></g></g><g fill="#ff5d01" fill-opacity="1"><g><g><path d="M 2.328125 0.09375 C 1.953125 0.09375 1.625 0.015625 1.34375 -0.140625 C 1.0625 -0.304688 0.835938 -0.53125 0.671875 -0.8125 C 0.515625 -1.101562 0.4375 -1.4375 0.4375 -1.8125 L 0.4375 -4.3125 L 1.4375 -4.3125 L 1.4375 -1.859375 C 1.4375 -1.640625 1.46875 -1.457031 1.53125 -1.3125 C 1.601562 -1.164062 1.707031 -1.050781 1.84375 -0.96875 C 1.976562 -0.894531 2.140625 -0.859375 2.328125 -0.859375 C 2.609375 -0.859375 2.828125 -0.941406 2.984375 -1.109375 C 3.140625 -1.285156 3.21875 -1.535156 3.21875 -1.859375 L 3.21875 -4.3125 L 4.203125 -4.3125 L 4.203125 -1.8125 C 4.203125 -1.425781 4.117188 -1.09375 3.953125 -0.8125 C 3.796875 -0.53125 3.578125 -0.304688 3.296875 -0.140625 C 3.015625 0.015625 2.691406 0.09375 2.328125 0.09375 Z M 2.328125 0.09375" transform="translate(101.2928, 41.61574)"/></g></g></g><g fill="#ff5d01" fill-opacity="1"><g><g><path d="M 2.53125 0.09375 C 2.113281 0.09375 1.726562 -0.00390625 1.375 -0.203125 C 1.03125 -0.398438 0.757812 -0.671875 0.5625 -1.015625 C 0.363281 -1.359375 0.265625 -1.738281 0.265625 -2.15625 C 0.265625 -2.582031 0.363281 -2.960938 0.5625 -3.296875 C 0.757812 -3.640625 1.03125 -3.910156 1.375 -4.109375 C 1.726562 -4.304688 2.113281 -4.40625 2.53125 -4.40625 C 2.875 -4.40625 3.191406 -4.335938 3.484375 -4.203125 C 3.773438 -4.078125 4.019531 -3.894531 4.21875 -3.65625 L 3.578125 -3 C 3.453125 -3.15625 3.300781 -3.269531 3.125 -3.34375 C 2.945312 -3.414062 2.75 -3.453125 2.53125 -3.453125 C 2.289062 -3.453125 2.078125 -3.394531 1.890625 -3.28125 C 1.703125 -3.175781 1.550781 -3.023438 1.4375 -2.828125 C 1.332031 -2.640625 1.28125 -2.414062 1.28125 -2.15625 C 1.28125 -1.90625 1.332031 -1.679688 1.4375 -1.484375 C 1.550781 -1.296875 1.703125 -1.144531 1.890625 -1.03125 C 2.078125 -0.914062 2.289062 -0.859375 2.53125 -0.859375 C 2.75 -0.859375 2.945312 -0.894531 3.125 -0.96875 C 3.300781 -1.050781 3.453125 -1.164062 3.578125 -1.3125 L 4.21875 -0.65625 C 4.019531 -0.414062 3.773438 -0.226562 3.484375 -0.09375 C 3.191406 0.03125 2.875 0.09375 2.53125 0.09375 Z M 2.53125 0.09375" transform="translate(106.21889, 41.61574)"/></g></g></g><g fill="#ff5d01" fill-opacity="1"><g><g><path d="M 2.359375 0.09375 C 1.960938 0.09375 1.609375 -0.00390625 1.296875 -0.203125 C 0.984375 -0.398438 0.734375 -0.664062 0.546875 -1 C 0.367188 -1.34375 0.28125 -1.726562 0.28125 -2.15625 C 0.28125 -2.582031 0.367188 -2.960938 0.546875 -3.296875 C 0.734375 -3.640625 0.984375 -3.910156 1.296875 -4.109375 C 1.609375 -4.304688 1.960938 -4.40625 2.359375 -4.40625 C 2.691406 -4.40625 2.984375 -4.332031 3.234375 -4.1875 C 3.492188 -4.050781 3.695312 -3.859375 3.84375 -3.609375 C 3.988281 -3.367188 4.0625 -3.09375 4.0625 -2.78125 L 4.0625 -1.53125 C 4.0625 -1.226562 3.988281 -0.953125 3.84375 -0.703125 C 3.695312 -0.453125 3.492188 -0.253906 3.234375 -0.109375 C 2.984375 0.0234375 2.691406 0.09375 2.359375 0.09375 Z M 2.515625 -0.84375 C 2.878906 -0.84375 3.175781 -0.960938 3.40625 -1.203125 C 3.632812 -1.453125 3.75 -1.769531 3.75 -2.15625 C 3.75 -2.414062 3.695312 -2.644531 3.59375 -2.84375 C 3.488281 -3.039062 3.34375 -3.191406 3.15625 -3.296875 C 2.976562 -3.410156 2.765625 -3.46875 2.515625 -3.46875 C 2.273438 -3.46875 2.0625 -3.410156 1.875 -3.296875 C 1.695312 -3.191406 1.554688 -3.039062 1.453125 -2.84375 C 1.347656 -2.644531 1.296875 -2.414062 1.296875 -2.15625 C 1.296875 -1.894531 1.347656 -1.664062 1.453125 -1.46875 C 1.554688 -1.269531 1.695312 -1.113281 1.875 -1 C 2.0625 -0.894531 2.273438 -0.84375 2.515625 -0.84375 Z M 3.6875 0 L 3.6875 -1.15625 L 3.859375 -2.21875 L 3.6875 -3.265625 L 3.6875 -4.3125 L 4.671875 -4.3125 L 4.671875 0 Z M 3.6875 0" transform="translate(110.874811, 41.61574)"/></g></g></g><g fill="#ff5d01" fill-opacity="1"><g><g><path d="M 1.203125 0 L 1.203125 -6.125 L 2.203125 -6.125 L 2.203125 0 Z M 0.171875 -3.421875 L 0.171875 -4.3125 L 3.234375 -4.3125 L 3.234375 -3.421875 Z M 0.171875 -3.421875" transform="translate(116.368262, 41.61574)"/></g></g></g><g fill="#ff5d01" fill-opacity="1"><g><g><path d="M 0.5625 0 L 0.5625 -4.3125 L 1.546875 -4.3125 L 1.546875 0 Z M 1.046875 -5.109375 C 0.878906 -5.109375 0.738281 -5.164062 0.625 -5.28125 C 0.519531 -5.394531 0.46875 -5.535156 0.46875 -5.703125 C 0.46875 -5.867188 0.519531 -6.007812 0.625 -6.125 C 0.738281 -6.238281 0.878906 -6.296875 1.046875 -6.296875 C 1.222656 -6.296875 1.363281 -6.238281 1.46875 -6.125 C 1.582031 -6.007812 1.640625 -5.867188 1.640625 -5.703125 C 1.640625 -5.535156 1.582031 -5.394531 1.46875 -5.28125 C 1.363281 -5.164062 1.222656 -5.109375 1.046875 -5.109375 Z M 1.046875 -5.109375" transform="translate(120.042563, 41.61574)"/></g></g></g><g fill="#ff5d01" fill-opacity="1"><g><g><path d="M 2.53125 0.09375 C 2.113281 0.09375 1.734375 -0.00390625 1.390625 -0.203125 C 1.046875 -0.410156 0.769531 -0.679688 0.5625 -1.015625 C 0.363281 -1.359375 0.265625 -1.742188 0.265625 -2.171875 C 0.265625 -2.585938 0.363281 -2.960938 0.5625 -3.296875 C 0.769531 -3.640625 1.046875 -3.910156 1.390625 -4.109375 C 1.734375 -4.304688 2.113281 -4.40625 2.53125 -4.40625 C 2.957031 -4.40625 3.335938 -4.304688 3.671875 -4.109375 C 4.015625 -3.910156 4.285156 -3.640625 4.484375 -3.296875 C 4.691406 -2.960938 4.796875 -2.585938 4.796875 -2.171875 C 4.796875 -1.742188 4.691406 -1.359375 4.484375 -1.015625 C 4.285156 -0.679688 4.015625 -0.410156 3.671875 -0.203125 C 3.335938 -0.00390625 2.957031 0.09375 2.53125 0.09375 Z M 2.53125 -0.859375 C 2.769531 -0.859375 2.984375 -0.914062 3.171875 -1.03125 C 3.367188 -1.144531 3.519531 -1.300781 3.625 -1.5 C 3.726562 -1.695312 3.78125 -1.921875 3.78125 -2.171875 C 3.78125 -2.421875 3.722656 -2.640625 3.609375 -2.828125 C 3.503906 -3.023438 3.359375 -3.175781 3.171875 -3.28125 C 2.984375 -3.394531 2.769531 -3.453125 2.53125 -3.453125 C 2.289062 -3.453125 2.078125 -3.394531 1.890625 -3.28125 C 1.703125 -3.175781 1.550781 -3.023438 1.4375 -2.828125 C 1.332031 -2.640625 1.28125 -2.421875 1.28125 -2.171875 C 1.28125 -1.921875 1.332031 -1.695312 1.4375 -1.5 C 1.550781 -1.300781 1.703125 -1.144531 1.890625 -1.03125 C 2.078125 -0.914062 2.289062 -0.859375 2.53125 -0.859375 Z M 2.53125 -0.859375" transform="translate(122.42005, 41.61574)"/></g></g></g><g fill="#ff5d01" fill-opacity="1"><g><g><path d="M 3.515625 0 L 3.515625 -2.5 C 3.515625 -2.78125 3.421875 -3.015625 3.234375 -3.203125 C 3.054688 -3.390625 2.820312 -3.484375 2.53125 -3.484375 C 2.332031 -3.484375 2.160156 -3.441406 2.015625 -3.359375 C 1.867188 -3.273438 1.75 -3.15625 1.65625 -3 C 1.570312 -2.851562 1.53125 -2.6875 1.53125 -2.5 L 1.15625 -2.703125 C 1.15625 -3.035156 1.222656 -3.328125 1.359375 -3.578125 C 1.503906 -3.835938 1.703125 -4.039062 1.953125 -4.1875 C 2.210938 -4.332031 2.503906 -4.40625 2.828125 -4.40625 C 3.148438 -4.40625 3.4375 -4.320312 3.6875 -4.15625 C 3.9375 -4 4.132812 -3.785156 4.28125 -3.515625 C 4.425781 -3.253906 4.5 -2.984375 4.5 -2.703125 L 4.5 0 Z M 0.546875 0 L 0.546875 -4.3125 L 1.53125 -4.3125 L 1.53125 0 Z M 0.546875 0" transform="translate(127.760398, 41.61574)"/></g></g></g></svg>