<svg xmlns="http://www.w3.org/2000/svg" width="426" height="75" fill="none" viewBox="0 0 426 75"><path fill="#4D525A" d="M33.3848 2.9541C36.3252 8.70472 42.5315 23.4827 37.931 38.0546C52.1774 24.0795 43.3561 10.0827 42.3362 8.61792C39.6347 6.31687 36.621 4.41 33.3848 2.9541"/><path fill="#828181" d="M30.283 1.84808H30.3806C14.4417 -3.57703 0 4.66914 0 4.66914C0.130203 5.61311 0.303805 6.52453 0.49911 7.41425C4.8328 7.15489 9.18126 7.5203 13.4109 8.49927C13.4109 8.49927 14.4959 8.93328 13.4109 9.16113C13.4109 9.16113 6.43419 10.3438 1.63839 11.635C2.06078 12.8544 2.54978 14.0497 3.10317 15.2156C9.34873 14.5247 15.6698 15.1531 21.6571 17.0601C21.6571 17.0601 22.7421 17.5809 21.6571 17.7111C21.6571 17.7111 9.34205 18.7961 5.96763 20.1633C12.6297 29.8091 22.9482 34.8219 29.5777 37.1981C32.4639 38.0228 34.2433 38.4785 35.3501 38.728V38.5653C40.7752 23.3749 33.18 7.41425 30.6845 2.8897L30.283 1.84808Z"/><path fill="#008CCC" d="M237.533 5.13516C237.454 5.1819 237.364 5.20453 237.272 5.20026H237.196V4.6686C237.196 4.5167 237.251 4.47329 237.392 4.47329C237.441 4.46863 237.49 4.47452 237.537 4.49056C237.584 4.50661 237.627 4.53244 237.663 4.56633C237.699 4.60022 237.727 4.64139 237.746 4.68709C237.764 4.73279 237.773 4.78198 237.771 4.83135C237.77 4.89367 237.752 4.95448 237.72 5.00776C237.687 5.06104 237.641 5.10496 237.587 5.13516H237.533ZM238.39 6.02488C238.182 5.81993 238.009 5.58154 237.88 5.31961C237.995 5.28659 238.098 5.21893 238.173 5.12579C238.249 5.03264 238.294 4.9185 238.303 4.7988C238.303 4.31054 237.88 4.21289 237.522 4.21289H236.437V4.47329C236.686 4.47329 236.719 4.47329 236.719 4.7771V5.86212C236.719 6.15508 236.719 6.15508 236.404 6.16593V6.43718H237.489V6.16593C237.207 6.16593 237.175 6.16593 237.175 5.86212V5.53662C237.213 5.53159 237.252 5.5382 237.287 5.5556C237.322 5.573 237.351 5.60039 237.37 5.63427C237.446 5.75362 237.544 5.91638 237.685 6.11168C237.774 6.23433 237.895 6.33042 238.034 6.38968C238.174 6.44893 238.327 6.4691 238.477 6.44804L238.553 6.24188C238.464 6.1976 238.387 6.13467 238.325 6.05743"/><path fill="#008CCC" d="M237.348 7.00093C237.132 7.00265 236.919 6.96039 236.72 6.87673C236.522 6.79307 236.342 6.66977 236.193 6.51437C236.044 6.35898 235.928 6.17475 235.852 5.97296C235.776 5.77118 235.743 5.55609 235.753 5.34084C235.741 5.12459 235.773 4.90819 235.847 4.70468C235.921 4.50117 236.036 4.31475 236.184 4.15662C236.332 3.9985 236.51 3.87195 236.709 3.78457C236.907 3.6972 237.12 3.65081 237.337 3.6482V3.6482C237.555 3.64948 237.771 3.69472 237.972 3.7812C238.172 3.86768 238.354 3.99364 238.504 4.15158C238.655 4.30952 238.773 4.49621 238.85 4.70053C238.927 4.90484 238.962 5.12261 238.954 5.34084C238.963 5.55755 238.927 5.77379 238.85 5.97635C238.772 6.17891 238.654 6.36351 238.503 6.51889C238.351 6.67428 238.17 6.79717 237.97 6.88005C237.769 6.96293 237.554 7.00406 237.337 7.00093H237.348ZM237.337 3.2793C236.79 3.2793 236.266 3.49649 235.879 3.88311C235.493 4.26972 235.276 4.79409 235.276 5.34084C235.273 5.61138 235.324 5.87975 235.427 6.13001C235.53 6.38026 235.682 6.60729 235.874 6.79758C236.066 6.98788 236.295 7.13757 236.546 7.23774C236.798 7.33791 237.067 7.38652 237.337 7.38068C237.881 7.38068 238.403 7.16463 238.787 6.78005C239.172 6.39547 239.388 5.87387 239.388 5.32999C239.388 4.78611 239.172 4.26451 238.787 3.87993C238.403 3.49535 237.881 3.2793 237.337 3.2793"/><path fill="#008CCC" d="M175.837 13.6957C176.462 13.6957 177.072 13.5105 177.591 13.1636C178.111 12.8166 178.515 12.3235 178.754 11.7466C178.993 11.1696 179.056 10.5348 178.934 9.92229C178.812 9.30981 178.511 8.74722 178.07 8.30564C177.628 7.86407 177.066 7.56336 176.453 7.44153C175.841 7.3197 175.206 7.38223 174.629 7.62121C174.052 7.86018 173.559 8.26487 173.212 8.78411C172.865 9.30334 172.68 9.9138 172.68 10.5383C172.68 11.3757 173.012 12.1788 173.604 12.7709C174.197 13.363 175 13.6957 175.837 13.6957"/><path fill="#008CCC" d="M66.2398 34.833C61.1945 34.833 58.6447 27.9974 58.6447 20.0116C58.6447 12.5467 61.1511 6.99134 65.2416 6.99134C69.7661 6.99134 72.4136 12.6769 72.4136 21.9213C72.4136 30.4387 69.8204 34.8656 66.153 34.8656L66.2398 34.833ZM65.9143 4.82129C56.1491 4.82129 51.4727 13.1 51.4727 21.0424C51.4727 30.2 57.0063 37.0356 65.4803 37.0356C73.4661 37.0356 79.5856 30.8727 79.5856 20.7603C79.5856 11.1361 73.7156 4.82129 65.9143 4.82129"/><path fill="#008CCC" d="M102.055 31.3163V21.7356C102.055 17.3087 99.9827 14.3791 96.1417 14.3791C94.8117 14.401 93.5247 14.8541 92.4743 15.6703C91.4652 16.343 90.6515 17.0157 89.7401 17.645V14.3574C87.0148 15.2303 84.2085 15.8265 81.3637 16.1369V17.6125C83.5337 18.0031 83.7182 18.1442 83.7182 20.9869V31.197C83.7182 34.1265 83.4795 34.2242 80.7344 34.5606V36.34H91.8016V34.5606C90.0222 34.3219 89.7835 34.1265 89.7835 31.3055V19.5764C90.6681 18.6989 91.8578 18.1974 93.1036 18.1767C94.742 18.1767 96.0874 19.2617 96.0874 22.6036V31.2838C96.0874 34.2133 95.8487 34.4086 93.9174 34.6474V36.4268H104.648V34.6474C102.348 34.3544 102.098 34.2133 102.098 31.3923"/><path fill="#008CCC" d="M116.889 22.4083L111.55 22.5602C111.789 19.0447 113.514 16.4407 115.207 16.4407C116.943 16.4407 117.898 18.9905 117.898 21.3016C117.898 22.1696 117.67 22.3866 116.813 22.3866L116.889 22.4083ZM123.507 22.2455C123.526 20.2111 122.751 18.2495 121.347 16.7768C119.943 15.3042 118.021 14.4363 115.988 14.3574V14.3574C114.641 14.4225 113.32 14.7577 112.105 15.3429C110.89 15.9282 109.805 16.7516 108.914 17.7644C106.726 20.1582 105.521 23.2886 105.539 26.5314C105.539 32.1084 109.011 36.9368 115.174 36.9368C116.838 36.8357 118.452 36.3315 119.877 35.4676C121.302 34.6038 122.496 33.4062 123.355 31.9782L122.346 30.5785C121.699 31.2323 120.926 31.7481 120.073 32.095C119.221 32.4418 118.308 32.6125 117.388 32.5967C114.133 32.5967 111.463 29.8081 111.322 25.0015C115.749 24.8062 121.478 24.3722 122.173 24.2311C123.377 24.0358 123.572 23.4065 123.572 22.2998"/><path fill="#008CCC" d="M145.63 27.4758C145.63 22.7994 142.375 20.0976 137.633 17.6021C133.879 15.6165 132.154 14.0866 132.154 11.4392C132.118 10.8685 132.198 10.2965 132.389 9.75739C132.579 9.21824 132.876 8.72287 133.262 8.30076C133.647 7.87864 134.114 7.53841 134.634 7.30028C135.154 7.06215 135.716 6.931 136.288 6.91462C139.944 6.91462 141.246 10.2348 142.212 13.2186L144.186 12.8822C143.752 9.84418 143.416 7.82604 143.275 5.99235C141.265 5.26255 139.152 4.8596 137.014 4.79883C130.222 4.79883 126.522 8.88937 126.522 13.9456C126.522 18.5135 130.081 21.2586 134.508 23.6565C137.926 25.5445 139.76 27.4758 139.76 30.1667C139.76 33.0528 138.024 34.9299 135.42 34.9299C130.993 34.9299 128.682 29.9714 127.824 27.0744L125.85 27.6169C126.133 30.2425 126.597 32.8454 127.238 35.4073C128.148 35.805 129.083 36.1421 130.038 36.4164C131.508 36.844 133.032 37.056 134.562 37.0457C141.344 37.0457 145.684 32.9009 145.684 27.5192"/><path fill="#008CCC" d="M157.284 34.5943C155.504 34.3013 155.255 34.106 155.255 31.3392V19.4039C155.657 18.9635 156.148 18.6146 156.697 18.3806C157.245 18.1466 157.838 18.0331 158.434 18.0477C160.17 18.0477 161.559 19.252 161.559 22.7241V31.3392C161.559 34.03 161.363 34.2687 159.389 34.5943V36.3737H182.174V34.5943C179.527 34.3013 179.277 34.0192 179.277 30.9377V14.3586C176.461 15.1957 173.579 15.791 170.662 16.138V17.7221C173.071 18.1562 173.266 18.2538 173.266 21.2376V30.916C173.266 34.0843 172.854 34.2796 170.304 34.5726C167.993 34.2362 167.635 34.1385 167.635 31.2524V22.1707C167.635 17.1688 165.465 14.3803 161.374 14.3803C158.965 14.3803 156.795 15.921 155.309 17.4075V3.16113C152.473 3.8938 149.597 4.45541 146.694 4.84292V6.4813C149.146 6.76341 149.287 6.76341 149.287 9.56277V31.2632C149.287 34.1494 149.048 34.3447 146.357 34.5834V36.3628H157.338L157.284 34.5943Z"/><path fill="#008CCC" d="M192.807 16.4411C194.543 16.4411 195.498 18.9909 195.498 21.302C195.498 22.17 195.259 22.387 194.413 22.387L189.064 22.5389C189.303 19.0235 191.039 16.4194 192.731 16.4194L192.807 16.4411ZM192.731 36.9372C194.394 36.8343 196.008 36.3293 197.433 35.4657C198.858 34.602 200.052 33.4054 200.912 31.9786L199.892 30.5789C199.245 31.2327 198.472 31.7485 197.62 32.0954C196.768 32.4422 195.854 32.6129 194.934 32.5971C191.679 32.5971 189.021 29.8086 188.869 25.0019C193.306 24.8066 199.035 24.3726 199.719 24.2316C200.923 24.0363 201.119 23.4069 201.119 22.3002C201.137 20.2658 200.362 18.3042 198.958 16.8315C197.555 15.3589 195.632 14.491 193.599 14.4121C192.252 14.4772 190.932 14.8123 189.716 15.3976C188.501 15.9828 187.416 16.8063 186.525 17.8191C184.337 20.2129 183.133 23.3433 183.151 26.5861C183.151 32.1739 186.612 36.9914 192.786 36.9914"/><path fill="#008CCC" d="M213.455 34.5943C210.765 34.3013 210.515 34.106 210.515 31.0788V3.16113C207.671 3.95052 204.768 4.51288 201.835 4.84292V6.38365C204.439 6.72001 204.537 6.81766 204.537 9.63872V31.0571C204.537 33.9432 204.341 34.2362 201.65 34.5726V36.352H213.488L213.455 34.5943Z"/><path fill="#008CCC" d="M225.261 33.1946C223.243 33.1946 220.162 30.7858 220.162 25.0678C220.162 17.7004 223.525 16.5829 224.502 16.5829C225.706 16.5829 226.813 17.4075 227.475 19.0893V32.5219C226.833 33.0199 226.028 33.2599 225.218 33.1946H225.261ZM236.535 35.1259V33.3899L235.189 33.2488C233.746 33.1078 233.497 32.8148 233.497 30.4061V3.16113C230.571 3.99415 227.574 4.5571 224.545 4.84292V6.4813C227.29 6.72001 227.475 6.95872 227.475 9.60617V14.619C226.861 14.4849 226.237 14.405 225.609 14.3803C224.023 14.3559 222.448 14.6461 220.975 15.2342C219.502 15.8222 218.16 16.6965 217.027 17.8063C215.894 18.9162 214.992 20.2397 214.373 21.7002C213.755 23.1608 213.432 24.7295 213.424 26.3155C213.424 33.4984 218.534 36.9054 222.473 36.9054C223.407 36.9122 224.314 36.5895 225.034 35.9939L227.475 34.3664V36.9054C230.447 36.081 233.475 35.4718 236.535 35.0825"/><path fill="#008CCC" d="M139.295 55.5243C139.295 53.6255 140.966 52.9962 142.485 52.9962C143.411 52.969 144.332 53.1546 145.176 53.5387L145.404 52.215C144.473 51.8855 143.493 51.7203 142.507 51.7267C139.913 51.7267 137.83 53.2024 137.83 55.5677C137.83 59.4413 144.601 59.7993 144.601 62.6963C144.601 64.7904 143.103 65.7235 141.28 65.7235C140.133 65.763 139 65.4609 138.025 64.8555L137.884 66.3529C138.938 66.7954 140.073 67.0134 141.215 66.993C143.505 66.993 146.065 65.8103 146.065 62.8265C146.065 58.4864 139.295 58.4864 139.295 55.5243"/><path fill="#008CCC" d="M154.811 65.7234C151.35 65.7234 149.787 62.4683 149.787 59.3543C149.787 56.2403 151.35 52.996 154.811 52.996C158.272 52.996 159.845 56.2511 159.845 59.3543C159.845 62.4574 158.283 65.7234 154.811 65.7234ZM154.811 51.7266C150.373 51.7266 148.301 55.3614 148.301 59.3217C148.301 63.8463 150.547 66.9169 154.811 66.9169C159.075 66.9169 161.321 63.8029 161.321 59.3217C161.321 55.3288 159.27 51.7266 154.811 51.7266Z"/><path fill="#008CCC" d="M164.076 51.9766V66.7437H165.541V59.7779H170.847V58.5084H165.541V53.246H171.096V51.9766H164.076Z"/><path fill="#008CCC" d="M172.051 51.9766V53.246H176.402V66.7437H177.867V53.246H182.217V51.9766H172.051Z"/><path fill="#008CCC" d="M200.783 51.9766L197.083 65.0836H197.039L193.318 51.9766H191.56L187.773 65.0836H187.73L184.095 51.9766H182.598L186.829 66.7437H188.576L192.385 53.6258H192.428L196.171 66.7437H197.907L202.182 51.9766H200.783Z"/><path fill="#008CCC" d="M208.497 53.4192L211.687 61.5569H205.275L208.497 53.4192ZM207.77 52.0195L201.727 66.7867H203.148L204.732 62.8264H212.175L213.759 66.7867H215.278L209.419 52.0195H207.77Z"/><path fill="#008CCC" d="M220.422 58.508H218.87V53.2456H220.378C222.386 53.2456 224.1 53.3975 224.1 55.8063C224.1 57.8569 222.125 58.508 220.422 58.508V58.508ZM222.277 59.2566C223.148 59.1997 223.965 58.818 224.568 58.1871C225.171 57.5562 225.515 56.7221 225.532 55.8497C225.532 53.1371 223.818 52.0195 221.192 52.0195H217.395V66.7867H218.848V59.8208H220.053C221.453 59.8208 222.082 59.8859 222.928 61.7956L225.098 66.7867H226.704L224.176 61.0144C223.709 60.027 223.46 59.3868 222.277 59.2458"/><path fill="#008CCC" d="M229.125 51.9766V66.7437H236.612V65.4634H230.59V59.7779H236.069V58.5084H230.59V53.246H236.362V51.9766H229.125Z"/><path fill="#008CCC" d="M236.62 43.1865H53.1973V44.5645H236.62V43.1865Z"/><path fill="#008CCC" d="M280.596 63.7365C282.191 64.7186 284.04 65.2092 285.913 65.147C288.885 65.147 291.338 63.628 291.338 60.221C291.338 55.5012 280.281 54.9153 280.281 48.6113C280.281 44.7595 283.667 42.3398 287.876 42.3398C289.486 42.3387 291.085 42.6064 292.607 43.1319L292.227 45.302C290.85 44.6723 289.347 44.3679 287.833 44.4122C285.348 44.4122 282.625 45.4973 282.625 48.5462C282.625 53.3637 293.67 53.3962 293.67 60.4814C293.67 65.3423 289.493 67.2628 285.761 67.2628C283.898 67.2713 282.052 66.9022 280.336 66.1778L280.596 63.7365Z"/><path fill="#008CCC" d="M298.316 49.2307H300.486V66.7972H298.316V49.2307ZM300.486 44.5434H298.316V41.6572H300.486V44.5434Z"/><path fill="#008CCC" d="M327.252 66.7971V55.1223C327.252 52.6484 326.319 50.6845 323.52 50.6845C321.133 50.6845 318.778 52.7135 318.778 57.0861V66.8513H316.608V55.1223C316.608 52.6484 315.675 50.6845 312.876 50.6845C310.489 50.6845 308.145 52.7135 308.145 57.0861V66.8513H305.975V53.4188C305.997 52.0393 305.95 50.6596 305.834 49.2848H307.95V52.2469H308.015C308.458 51.1755 309.226 50.2702 310.211 49.6589C311.196 49.0476 312.348 48.7611 313.505 48.84C314.607 48.7667 315.696 49.1078 316.559 49.7964C317.422 50.4849 317.997 51.4712 318.171 52.5616H318.247C318.692 51.4399 319.471 50.4818 320.478 49.8164C321.485 49.151 322.671 48.8102 323.878 48.84C327.426 48.84 329.433 51.3247 329.433 54.7316V66.8188L327.252 66.7971Z"/><path fill="#008CCC" d="M341.932 50.6854C338.058 50.6854 336.713 54.8085 336.713 58.0201C336.713 61.2318 338.102 65.3549 341.932 65.3549C346.077 65.3549 347.151 61.4271 347.151 58.0201C347.151 54.6131 346.066 50.6854 341.932 50.6854V50.6854ZM334.543 49.2314H336.713L336.583 52.4865H336.648C337.132 51.4009 337.923 50.4806 338.924 49.8386C339.924 49.1967 341.091 48.8612 342.279 48.8734C347.466 48.8734 349.538 52.736 349.538 58.0744C349.538 63.4127 347.118 67.2645 342.279 67.2645C341.12 67.3604 339.96 67.081 338.972 66.4675C337.983 65.8541 337.218 64.9391 336.789 63.8575H336.713V74.0351H334.543V49.2314Z"/><path fill="#008CCC" d="M356.136 40.9629H353.955V66.7973H356.136V40.9629Z"/><path fill="#008CCC" d="M361.627 49.2307H363.797V66.7972H361.627V49.2307ZM363.797 44.5434H361.627V41.6572H363.797V44.5434Z"/><path fill="#008CCC" d="M380.485 49.2302H382.655V66.7967H380.485V49.2302ZM382.655 44.5429H380.485V41.6568H382.655V44.5429ZM370.774 51.0531H367.215V49.1868H370.774V47.9933C370.774 44.3042 370.915 40.5826 375.439 40.5826C376.136 40.5568 376.83 40.675 377.479 40.9298L377.338 42.8286C376.802 42.5662 376.21 42.436 375.613 42.4488C372.64 42.4488 372.955 45.7039 372.955 47.7546V49.2628H376.926V51.129H372.955V66.8293H370.785L370.774 51.0531Z"/><path fill="#008CCC" d="M399.245 56.7716C399.245 53.7118 397.997 50.6846 394.753 50.6846C391.509 50.6846 389.567 53.9397 389.567 56.7716H399.245ZM400.33 66.2438C398.7 66.8768 396.968 67.2042 395.22 67.2095C389.382 67.2095 387.201 63.2817 387.201 58.0194C387.201 52.757 390.174 48.8184 394.634 48.8184C399.603 48.8184 401.643 52.8112 401.643 57.4985V58.5836H389.567C389.567 62.3052 391.574 65.2999 395.371 65.2999C397.096 65.2469 398.785 64.7977 400.308 63.987L400.33 66.2438Z"/><path fill="#008CCC" d="M412.33 65.3542C416.203 65.3542 417.548 61.2203 417.548 58.0195C417.548 54.8186 416.203 50.6847 412.33 50.6847C408.185 50.6847 407.111 54.6016 407.111 58.0195C407.111 61.4373 408.196 65.3542 412.33 65.3542ZM419.719 66.7973H417.548V64.0088H417.473C416.992 65.0413 416.21 65.9045 415.231 66.4853C414.251 67.0661 413.119 67.3375 411.982 67.2638C407.143 67.2638 404.734 63.271 404.734 58.0737C404.734 52.8764 406.807 48.8727 411.982 48.8727C413.126 48.8453 414.252 49.1493 415.226 49.7481C416.201 50.3469 416.981 51.2148 417.473 52.2471H417.548V40.9629H419.719V66.7973Z"/><path fill="#008CCC" d="M425.957 65.0615H424.275V66.7976H425.957V65.0615Z"/><path fill="#008CCC" d="M260.024 2.9873H259.199V66.9928H260.024V2.9873Z"/><path fill="#008CCC" d="M279.697 21.1719H280.912V33.4435H279.697V21.1719Z"/><path fill="#008CCC" d="M283.635 26.5863C283.635 25.9028 283.635 25.1975 283.57 24.4814H284.655V26.0764C284.877 25.5011 285.279 25.0133 285.801 24.6865C286.324 24.3597 286.938 24.2115 287.552 24.2644C289.722 24.2644 290.612 25.7509 290.612 27.7147V33.4437H289.527V28.0185C289.527 26.3259 288.93 25.2409 287.357 25.2409C285.339 25.2409 284.699 27.0203 284.699 28.496V33.4545H283.614L283.635 26.5863Z"/><path fill="#008CCC" d="M292.728 32.1414C293.451 32.5081 294.25 32.7013 295.06 32.7056C296.145 32.7056 297.046 32.1305 297.046 31.1106C297.046 28.9406 292.706 29.3203 292.706 26.7705C292.706 24.9911 294.149 24.3184 295.625 24.3184C296.384 24.3345 297.135 24.4737 297.849 24.7307L297.74 25.6963C297.127 25.4104 296.464 25.2447 295.787 25.2081C294.637 25.2081 293.856 25.5553 293.856 26.7054C293.856 28.3763 298.261 28.1593 298.261 31.0455C298.261 32.9443 296.493 33.5953 295.136 33.5953C294.278 33.6149 293.424 33.4713 292.619 33.1721L292.728 32.1414Z"/><path fill="#008CCC" d="M307.244 31.3389C307.232 32.0414 307.258 32.744 307.32 33.4438H306.235V31.8489C306.012 32.425 305.608 32.9131 305.083 33.2398C304.559 33.5666 303.943 33.7143 303.327 33.6609C301.157 33.6609 300.268 32.1852 300.268 30.2105V24.4816H301.353V29.9067C301.353 31.5993 301.949 32.6843 303.523 32.6843C305.552 32.6843 306.181 30.9157 306.181 29.4293V24.4707H307.266L307.244 31.3389Z"/><path fill="#008CCC" d="M310.024 26.4889C310.041 25.8192 310.019 25.1489 309.959 24.4817H311.044V26.2068C311.186 25.6885 311.482 25.2255 311.893 24.8787C312.303 24.532 312.809 24.3179 313.344 24.2646C313.605 24.2687 313.863 24.3052 314.115 24.3732V25.5341C313.853 25.4625 313.583 25.426 313.312 25.4256C311.554 25.4256 311.077 27.4004 311.077 29.0171V33.4439H309.992L310.024 26.4889Z"/><path fill="#008CCC" d="M321.026 32C320.751 32.5122 320.34 32.9384 319.839 33.2315C319.337 33.5245 318.764 33.6728 318.183 33.6601C315.622 33.6601 315.221 31.9349 315.221 31.1211C315.221 28.1156 318.422 27.9746 320.743 27.9746H320.95V27.5188C320.95 25.989 320.407 25.2186 318.921 25.2186C317.985 25.1997 317.064 25.4563 316.273 25.9564V24.8714C317.108 24.4968 318.007 24.2868 318.921 24.2529C321.091 24.2529 322.067 25.262 322.067 27.5948V31.5551C322.05 32.1821 322.079 32.8095 322.154 33.4322H321.069L321.026 32ZM320.917 28.9294H320.602C318.693 28.9294 316.403 29.1247 316.403 31.0994C316.403 32.2821 317.25 32.7161 318.27 32.7161C320.874 32.7161 320.917 30.4484 320.917 29.461V28.9294Z"/><path fill="#008CCC" d="M324.67 26.5856C324.682 25.8831 324.656 25.1805 324.594 24.4806H325.679V26.0756C325.902 25.4995 326.306 25.0114 326.831 24.6847C327.355 24.3579 327.971 24.2102 328.587 24.2636C330.757 24.2636 331.636 25.7501 331.636 27.714V33.4429H330.551V28.0178C330.551 26.3252 329.954 25.2402 328.381 25.2402C326.362 25.2402 325.733 27.0196 325.733 28.4952V33.4538H324.648L324.67 26.5856Z"/><path fill="#008CCC" d="M340.274 25.674C339.673 25.4004 339.024 25.2456 338.364 25.2183C336.194 25.2183 334.979 26.7807 334.979 28.9616C334.979 31.1425 336.216 32.7049 338.234 32.7049C338.929 32.6953 339.617 32.5593 340.263 32.3035L340.361 33.3885C339.618 33.627 338.84 33.7335 338.06 33.7032C335.174 33.7032 333.775 31.5331 333.775 29.005C333.724 28.3983 333.802 27.7878 334.003 27.2131C334.204 26.6384 334.524 26.1125 334.941 25.6694C335.359 25.2263 335.865 24.876 336.426 24.6413C336.988 24.4065 337.593 24.2926 338.202 24.3069C338.94 24.3023 339.674 24.4234 340.372 24.6649L340.274 25.674Z"/><path fill="#008CCC" d="M348.258 33.1618C347.429 33.4889 346.545 33.6581 345.654 33.661C342.681 33.661 341.574 31.6537 341.574 28.9628C341.574 26.2719 343.082 24.2646 345.35 24.2646C347.889 24.2646 348.92 26.3045 348.92 28.7133V29.2775H342.789C342.789 31.1762 343.809 32.7061 345.741 32.7061C346.619 32.6756 347.479 32.4495 348.258 32.0443V33.1618ZM347.715 28.3335C347.715 26.7711 347.075 25.2195 345.426 25.2195C344.668 25.2939 343.969 25.6607 343.476 26.242C342.984 26.8233 342.738 27.5735 342.789 28.3335H347.715Z"/><path fill="#008CCC" d="M355.714 31.8807C356.522 32.385 357.463 32.638 358.415 32.6077C358.768 32.6536 359.127 32.6221 359.467 32.5154C359.806 32.4087 360.118 32.2293 360.382 31.9898C360.645 31.7503 360.853 31.4563 360.991 31.1283C361.129 30.8003 361.194 30.4462 361.182 30.0904C361.182 27.6817 355.551 27.3779 355.551 24.1662C355.551 22.1915 357.276 20.9111 359.435 20.9111C360.255 20.91 361.069 21.0457 361.844 21.3126L361.649 22.3976C360.951 22.0787 360.191 21.9228 359.424 21.9419C358.155 21.9419 356.766 22.4736 356.766 24.0469C356.766 26.5099 362.386 26.5316 362.386 30.123C362.386 32.5968 360.216 33.5842 358.361 33.5842C357.409 33.5982 356.463 33.4172 355.583 33.0526L355.714 31.8807Z"/><path fill="#008CCC" d="M368.214 24.2646C371.111 24.2646 372.391 26.5215 372.391 28.9628C372.391 31.4041 371.111 33.661 368.214 33.661C365.317 33.661 364.025 31.4041 364.025 28.9628C364.025 26.5215 365.306 24.2646 368.214 24.2646ZM368.214 32.7061C370.145 32.7061 371.176 31.0352 371.176 28.9628C371.176 26.8904 370.091 25.2195 368.214 25.2195C366.336 25.2195 365.241 26.8904 365.241 28.9628C365.241 31.0352 366.315 32.7061 368.214 32.7061Z"/><path fill="#008CCC" d="M374.484 20.2607H375.569V33.4438H374.484V20.2607Z"/><path fill="#008CCC" d="M385.389 31.3389C385.389 32.0225 385.389 32.7277 385.454 33.4438H384.369V31.8489C384.146 32.4231 383.744 32.9098 383.222 33.2364C382.699 33.563 382.086 33.7119 381.472 33.6609C379.248 33.6609 378.412 32.1852 378.412 30.2105V24.4816H379.497V29.9067C379.497 31.5993 380.094 32.6843 381.667 32.6843C383.685 32.6843 384.315 30.9157 384.315 29.4293V24.4707H385.4L385.389 31.3389Z"/><path fill="#008CCC" d="M392.029 25.4255H389.989V31.2304C389.989 32.0442 390.282 32.706 391.183 32.706C391.533 32.706 391.88 32.6359 392.203 32.4999L392.279 33.4113C391.844 33.5719 391.386 33.6563 390.923 33.6608C388.948 33.6608 388.883 32.3046 388.883 30.6662V25.4255H387.125V24.4816H388.883V22.3115L389.968 21.9209V24.4707H392.008L392.029 25.4255Z"/><path fill="#008CCC" d="M395.12 22.084H394.035V20.6084H395.12V22.084ZM394.035 24.4819H395.12V33.4442H394.035V24.4819Z"/><path fill="#008CCC" d="M401.415 24.2646C404.312 24.2646 405.603 26.5215 405.603 28.9628C405.603 31.4041 404.312 33.661 401.415 33.661C398.518 33.661 397.227 31.4041 397.227 28.9628C397.227 26.5215 398.518 24.2646 401.415 24.2646ZM401.415 32.7061C403.346 32.7061 404.388 31.0352 404.388 28.9628C404.388 26.8904 403.303 25.2195 401.415 25.2195C399.527 25.2195 398.442 26.8904 398.442 28.9628C398.442 31.0352 399.483 32.7061 401.415 32.7061Z"/><path fill="#008CCC" d="M407.686 26.5863C407.686 25.9028 407.686 25.1975 407.621 24.4814H408.706V26.0764C408.927 25.5011 409.329 25.0133 409.852 24.6865C410.375 24.3597 410.989 24.2115 411.603 24.2644C413.773 24.2644 414.663 25.7509 414.663 27.7147V33.4437H413.578V28.0185C413.578 26.3259 412.981 25.2409 411.408 25.2409C409.39 25.2409 408.749 27.0203 408.749 28.496V33.4545H407.664L407.686 26.5863Z"/><path fill="#008CCC" d="M416.779 32.1414C417.502 32.5081 418.301 32.7013 419.111 32.7056C420.196 32.7056 421.108 32.1305 421.108 31.1106C421.108 28.9406 416.768 29.3203 416.768 26.7705C416.768 24.9911 418.211 24.3184 419.686 24.3184C420.445 24.3345 421.197 24.4737 421.911 24.7307L421.802 25.6963C421.174 25.4288 420.5 25.2851 419.817 25.2732C418.667 25.2732 417.885 25.6204 417.885 26.7705C417.885 28.4414 422.291 28.2244 422.291 31.1106C422.291 33.0094 420.522 33.6604 419.166 33.6604C418.307 33.68 417.453 33.5364 416.648 33.2373L416.779 32.1414Z"/><path fill="#008CCC" d="M426 31.7178H424.318V33.4538H426V31.7178Z"/></svg>