<?xml version="1.0" standalone="no"?>
<!DOCTYPE svg PUBLIC "-//W3C//DTD SVG 1.1//EN" "http://www.w3.org/Graphics/SVG/1.1/DTD/svg11.dtd">
<svg xmlns="http://www.w3.org/2000/svg" width="261" height="74" viewBox="0 0 261 74" fill="none">
<g clip-path="url(#clip0_64_137)">
<path d="M214.295 56.3296H217.517L227.574 44.7061H207.884L214.295 56.3296Z" fill="url(#paint0_linear_64_137)"/>
<path d="M107.19 11.8425H85.2102V0.0664062H111.535L107.19 11.8425Z" fill="url(#paint1_linear_64_137)"/>
<path d="M85.21 0.0664062V44.8421H73.1282V11.0441L85.21 0.0664062Z" fill="url(#paint2_linear_64_137)"/>
<path d="M181.182 0.0664062H169.101V44.8421H181.182V0.0664062Z" fill="url(#paint3_linear_64_137)"/>
<path d="M207.804 11.8428H195.699V44.7758H207.804V11.8428Z" fill="url(#paint4_linear_64_137)"/>
<path d="M145.366 0.0665314L129.126 44.7059H117.221L133.285 0L145.366 0.0665314Z" fill="url(#paint5_linear_64_137)"/>
<path d="M133.308 0L149.372 44.7757L165.686 56.5517L145.39 0H133.308Z" fill="url(#paint6_linear_64_137)"/>
<path d="M243.435 0.0665314L227.574 44.7059H215.21L231.353 0L243.435 0.0665314Z" fill="url(#paint7_linear_64_137)"/>
<path d="M231.375 0L245.892 40.4289L261 49.2111L243.457 0H231.375Z" fill="url(#paint8_linear_64_137)"/>
<path d="M228.489 42.0239L251.216 56.6186L261 49.2114L231.923 32.4121L228.489 42.0239Z" fill="url(#paint9_linear_64_137)"/>
<path d="M113.657 56.7766H85.004L73.2632 44.7061H129.126L113.657 56.7766Z" fill="url(#paint10_linear_64_137)"/>
<path d="M194.438 56.5519H165.588L149.273 44.7061L206.543 44.7759L194.438 56.5519Z" fill="url(#paint11_linear_64_137)"/>
<path d="M51.3535 16.2114L30.9668 24.927V10.3345L51.3535 1.59668V16.2114Z" fill="url(#paint12_linear_64_137)"/>
<path d="M66.0748 45.2632L13.0602 73.3173L0 65.6218L66.0748 30.6484V45.2632Z" fill="url(#paint13_linear_64_137)"/>
<path d="M66.0747 45.264L30.9668 24.9275V10.335L66.0747 30.6492V45.264Z" fill="url(#paint14_linear_64_137)"/>
<path d="M207.803 11.8425H181.182L169.192 0.0664062H195.881L207.803 11.8425Z" fill="url(#paint15_linear_64_137)"/>
</g>
<defs>
<linearGradient id="paint0_linear_64_137" x1="207.884" y1="50.5288" x2="227.574" y2="50.5288" gradientUnits="userSpaceOnUse">
<stop stop-color="#343434"/>
<stop offset="1" stop-color="#A0A0A0"/>
</linearGradient>
<linearGradient id="paint1_linear_64_137" x1="85.2102" y1="5.96553" x2="111.535" y2="5.96553" gradientUnits="userSpaceOnUse">
<stop stop-color="#343434"/>
<stop offset="1" stop-color="#A0A0A0"/>
</linearGradient>
<linearGradient id="paint2_linear_64_137" x1="73.1282" y1="22.4964" x2="85.21" y2="22.4964" gradientUnits="userSpaceOnUse">
<stop stop-color="#343434"/>
<stop offset="1" stop-color="#A0A0A0"/>
</linearGradient>
<linearGradient id="paint3_linear_64_137" x1="169.101" y1="22.4964" x2="181.182" y2="22.4964" gradientUnits="userSpaceOnUse">
<stop stop-color="#343434"/>
<stop offset="1" stop-color="#A0A0A0"/>
</linearGradient>
<linearGradient id="paint4_linear_64_137" x1="195.699" y1="28.3403" x2="207.804" y2="28.3403" gradientUnits="userSpaceOnUse">
<stop stop-color="#343434"/>
<stop offset="1" stop-color="#A0A0A0"/>
</linearGradient>
<linearGradient id="paint5_linear_64_137" x1="117.221" y1="22.395" x2="145.366" y2="22.395" gradientUnits="userSpaceOnUse">
<stop stop-color="#343434"/>
<stop offset="1" stop-color="#A0A0A0"/>
</linearGradient>
<linearGradient id="paint6_linear_64_137" x1="133.308" y1="28.3291" x2="165.686" y2="28.3291" gradientUnits="userSpaceOnUse">
<stop stop-color="#343434"/>
<stop offset="1" stop-color="#A0A0A0"/>
</linearGradient>
<linearGradient id="paint7_linear_64_137" x1="215.21" y1="22.395" x2="243.435" y2="22.395" gradientUnits="userSpaceOnUse">
<stop stop-color="#343434"/>
<stop offset="1" stop-color="#A0A0A0"/>
</linearGradient>
<linearGradient id="paint8_linear_64_137" x1="231.375" y1="24.6519" x2="261" y2="24.6519" gradientUnits="userSpaceOnUse">
<stop stop-color="#343434"/>
<stop offset="1" stop-color="#A0A0A0"/>
</linearGradient>
<linearGradient id="paint9_linear_64_137" x1="228.489" y1="44.5382" x2="261" y2="44.5382" gradientUnits="userSpaceOnUse">
<stop stop-color="#343434"/>
<stop offset="1" stop-color="#A0A0A0"/>
</linearGradient>
<linearGradient id="paint10_linear_64_137" x1="73.2632" y1="50.7527" x2="129.126" y2="50.7527" gradientUnits="userSpaceOnUse">
<stop stop-color="#343434"/>
<stop offset="1" stop-color="#A0A0A0"/>
</linearGradient>
<linearGradient id="paint11_linear_64_137" x1="149.273" y1="50.6401" x2="206.543" y2="50.6401" gradientUnits="userSpaceOnUse">
<stop stop-color="#343434"/>
<stop offset="1" stop-color="#A0A0A0"/>
</linearGradient>
<linearGradient id="paint12_linear_64_137" x1="30.9668" y1="13.2619" x2="51.3535" y2="13.2619" gradientUnits="userSpaceOnUse">
<stop stop-color="#FFDE15"/>
<stop offset="1" stop-color="#FFDE15"/>
</linearGradient>
<linearGradient id="paint13_linear_64_137" x1="0" y1="51.9829" x2="66.0748" y2="51.9829" gradientUnits="userSpaceOnUse">
<stop stop-color="#FFDE15"/>
<stop offset="1" stop-color="#FFDE15"/>
</linearGradient>
<linearGradient id="paint14_linear_64_137" x1="30.9668" y1="27.7884" x2="66.0747" y2="27.7884" gradientUnits="userSpaceOnUse">
<stop stop-color="#FEF200"/>
<stop offset="1" stop-color="#FEF200"/>
</linearGradient>
<linearGradient id="paint15_linear_64_137" x1="169.192" y1="5.96553" x2="207.803" y2="5.96553" gradientUnits="userSpaceOnUse">
<stop stop-color="#343434"/>
<stop offset="1" stop-color="#A0A0A0"/>
</linearGradient>
<clipPath id="clip0_64_137">
<rect width="261" height="74" fill="white"/>
</clipPath>
</defs>
</svg>